<svg width="40" height="70" viewBox="0 0 40 70" fill="none" xmlns="http://www.w3.org/2000/svg">
<rect width="40" height="70" rx="20" fill="#0D0F14"/>
<path fill-rule="evenodd" clip-rule="evenodd" d="M20.0088 36.5533L20.4809 36.5513C22.3536 36.535 24.0243 36.4222 25.0832 36.2275C25.1023 36.2275 26.1524 36.0151 26.5019 35.8798C27.0072 35.6675 27.436 35.2835 27.7077 34.802C27.9016 34.4166 28 34.0122 28 33.589C27.9846 33.2562 27.8171 32.7075 27.6768 32.3159L27.552 31.9904C26.6958 29.8348 23.8979 25.7141 22.1869 24.136L22.0673 24.0196L21.5069 23.5004C21.078 23.1731 20.5537 23 19.9897 23C19.4845 23 18.9793 23.1542 18.571 23.4625C18.4387 23.5549 18.269 23.7036 18.1256 23.8359L17.5965 24.3413C15.8343 26.0806 13.3624 29.8465 12.5434 31.7984C12.5258 31.7984 12.0191 33.0115 12 33.589V33.6661C12 34.5519 12.5052 35.3795 13.3218 35.8028C13.5451 35.9184 13.9824 36.0293 14.3664 36.1137L15.0916 36.2653C16.2578 36.4384 18.0466 36.5533 20.0088 36.5533ZM17.9755 44.9957C17.9755 46.1026 18.8817 47 19.9994 47C21.1171 47 22.0233 46.1026 22.0233 44.9957L21.5871 40.0634C21.5871 39.195 20.8777 38.491 19.9994 38.491C19.1226 38.491 18.4117 39.195 18.4117 40.0634L17.9755 44.9957Z" fill="#00EEFF"/>
</svg>
